<svg width="37" height="37" viewBox="0 0 37 37" fill="none" xmlns="http://www.w3.org/2000/svg">
<path d="M23.4787 16.5727H17.9608V36.9595H15.0123V16.5727H7.51467V36.9595H4.56617V16.5727H0.985853V13.9191H4.56617C4.59425 13.0486 4.63637 12.3325 4.69254 11.7709C4.7487 11.2093 4.94526 10.4792 5.28224 9.58057C5.61921 8.6539 6.0685 7.92379 6.63012 7.39026C7.21982 6.82864 8.09033 6.33722 9.24165 5.91601C10.393 5.49479 11.783 5.27014 13.4117 5.24206V7.97995C12.3165 7.97995 11.3758 8.12036 10.5895 8.40117C9.80327 8.68198 9.21357 9.00491 8.82043 9.36996C8.4273 9.70693 8.11841 10.1843 7.89376 10.8021C7.6972 11.4199 7.58487 11.9253 7.55679 12.3185C7.52871 12.6835 7.51467 13.1609 7.51467 13.7506V13.9191H15.0123V5.78964H17.9608V13.9191H23.4787V16.5727ZM36.3899 19.1842H24.1747V16.5727L31.3353 9.32784C32.4305 8.23268 32.978 7.19369 32.978 6.21086C32.978 5.39651 32.7253 4.70853 32.2199 4.14691C31.7144 3.55721 31.0685 3.26236 30.2823 3.26236C29.4398 3.26236 28.7519 3.55721 28.2183 4.14691C27.6848 4.70853 27.418 5.42459 27.418 6.2951V7.05328H24.0483V6.21086C24.0483 4.526 24.638 3.07983 25.8174 1.87235C27.0249 0.664872 28.471 0.0611319 30.1559 0.0611319C31.8688 0.0611319 33.329 0.664872 34.5365 1.87235C35.744 3.05175 36.3477 4.49792 36.3477 6.21086C36.3477 7.95187 35.5194 9.65077 33.8626 11.3075L29.2292 15.983H36.3899V19.1842Z" fill="white"/>
</svg>
