<svg width="65" height="54" viewBox="0 0 65 54" fill="none" xmlns="http://www.w3.org/2000/svg">
<path d="M35.4376 32.3466C37.3169 28.3113 37.6865 23.7358 36.4793 19.4512C35.272 15.1666 32.568 11.4571 28.8584 8.99662C31.8389 5.93365 35.0667 2.89815 38.4731 0C34.4989 2.36266 30.7272 5.05022 27.1964 8.03515C23.3637 6.03661 18.9546 5.43551 14.7268 6.33516C10.499 7.23481 6.71662 9.57902 4.02971 12.9649C1.3428 16.3507 -0.0808139 20.5668 0.00354475 24.8884C0.0879034 29.2101 1.67497 33.3673 4.49197 36.6458C0.934524 44.3513 0.371377 50.5322 3.44808 52.6199C6.81323 54.8588 14.1204 50.7931 18.5569 44.1864C18.5569 44.1864 11.7717 50.2987 8.04941 48.8977C5.75561 48.0323 5.75561 44.5161 7.63735 39.489C11.2026 42.1046 15.5832 43.3642 19.9933 43.042C24.4033 42.7199 28.5543 40.8369 31.7016 37.7309L32.3609 38.967C40.4647 38.3077 64.6526 37.6622 64.6526 37.6622C64.5976 36.5222 48.5823 37.621 35.4376 32.3466ZM2.22564 24.5038C2.22856 21.7661 2.91793 19.0729 4.23068 16.6704C5.54342 14.268 7.43764 12.2332 9.74002 10.752C12.0424 9.2708 14.6795 8.39061 17.4099 8.19193C20.1404 7.99325 22.8771 8.48243 25.3696 9.61471C17.3407 16.6375 10.6369 25.0439 5.57705 34.4344C3.39646 31.5838 2.21832 28.0928 2.22564 24.5038ZM18.5844 40.8625C14.9117 40.8695 11.3445 39.6353 8.46147 37.36C11.703 30.0528 18.2959 20.2458 27.2926 10.6586C30.672 12.7866 33.1563 16.0773 34.2771 19.9104C35.3979 23.7434 35.0779 27.8541 33.3773 31.4676C30.5378 30.1932 27.9148 28.4832 25.6031 26.3992L30.5341 35.6568C29.0074 37.2998 27.1582 38.6101 25.1021 39.5058C23.046 40.4015 20.8271 40.8634 18.5844 40.8625Z" fill="#DCDCDC"/>
</svg>
