<svg width="17" height="18" viewBox="0 0 17 18" fill="none" xmlns="http://www.w3.org/2000/svg">
<path d="M16.3233 1C16.4645 1.1079 16.6481 1.18024 16.6539 1.26484C16.6657 1.44385 16.6434 1.70378 16.5316 1.80065C15.7715 2.46397 15.0633 3.27565 14.1867 3.69007C13.0067 4.24795 11.6913 4.49317 10.4324 4.86836C8.81464 5.35022 7.18748 5.8002 5.5815 6.32129C5.00853 6.50643 4.46379 6.81909 3.94493 7.14155C2.31072 8.15677 1.71304 9.46134 2.03776 11.4219C2.32719 13.1715 2.69309 14.9077 3.02605 16.6488C3.04488 16.7493 3.11194 16.8633 3.08371 16.9443C3.01782 17.1306 2.90722 17.3011 2.81428 17.4776C2.66133 17.3538 2.40131 17.2532 2.3719 17.1024C1.9707 15.0217 1.51891 12.9472 1.2483 10.8468C1.01888 9.06899 1.80833 7.67614 3.2296 6.6879C4.8544 5.55743 6.70275 5.01059 8.56874 4.5226C9.84059 4.1891 11.1254 3.90709 12.4007 3.58218C13.7891 3.22783 14.9856 2.5314 15.9139 1.37396C16.0198 1.24154 16.1657 1.14223 16.3233 1Z" fill="#EC2232" stroke="#EC2232" stroke-width="0.5"/>
</svg>
