<svg width="71" height="59" viewBox="0 0 71 59" fill="none" xmlns="http://www.w3.org/2000/svg">
<path d="M0.201291 57.0278V57.0773C0.201291 57.5911 0.616324 58.0061 1.1301 58.0061H69.8712C70.385 58.0061 70.8 57.5911 70.8 57.0773C70.8 56.5636 70.385 56.1485 69.8712 56.1485H67.6986H67.4986V55.9485L67.4979 9.69056C67.4979 9.35716 67.3185 9.04878 67.0282 8.88356L67.0275 8.88316C66.7379 8.71677 66.3805 8.72259 66.0942 8.89271L51.9851 17.3042L51.6827 17.4845V17.1324V9.68965C51.6827 9.35625 51.5034 9.04786 51.2131 8.88265L51.2124 8.88225C50.9229 8.71591 50.5656 8.72168 50.2794 8.89164L0.201291 57.0278ZM0.201291 57.0278C0.226931 56.5376 0.631135 56.1485 1.12802 56.1485H5.09386H5.28582L5.29369 55.9567L7.53475 1.3137L7.53476 1.3133C7.55417 0.815867 7.96447 0.423145 8.46215 0.423145H16.7779C17.2755 0.423145 17.6859 0.816557 17.7053 1.31331L17.7053 1.31373L18.4098 18.4339L18.4239 18.7761L18.715 18.5957L34.3609 8.90016L34.3611 8.90001C34.6482 8.72158 35.0066 8.7147 35.3012 8.87811C35.5968 9.04276 35.7787 9.35297 35.7787 9.68969L35.7779 16.8175H35.7777L35.7781 16.8259L35.793 17.1848L35.807 17.5201L36.0953 17.3482L50.2791 8.8918L0.201291 57.0278ZM8.46215 0.223145C7.8576 0.223145 7.35853 0.700171 7.33491 1.3055H17.9051C17.8815 0.700957 17.3825 0.223145 16.7779 0.223145H8.46215ZM18.6118 20.844L18.5124 20.9056L18.5172 21.0223L19.9549 55.9575L19.9628 56.1493H20.1547H65.4414H65.6414V55.9493V11.6783V11.3262L65.339 11.5065L51.2296 19.9182L51.2296 19.9182C50.9437 20.0887 50.5864 20.0941 50.2966 19.9276L50.2959 19.9272C50.0056 19.762 49.8262 19.4536 49.8262 19.1202V11.6774V11.3253L49.5238 11.5056L35.4153 19.9173L35.4148 19.9176C35.1348 20.0857 34.7854 20.0928 34.499 19.9364L34.4985 19.9361C34.2111 19.7801 34.0271 19.4843 34.0141 19.1563L33.9238 16.8593V11.7175V11.3584L33.6184 11.5475L18.6118 20.844ZM7.15356 55.9406L7.14502 56.1488H7.3534H17.8953H18.1037L18.0951 55.9406L15.8966 2.47243L15.8887 2.28065H15.6968H9.5473H9.35534L9.34747 2.47245L7.15356 55.9406Z" fill="white" stroke="#094367" stroke-width="0.4"/>
</svg>
