<svg width="35" height="24" viewBox="0 0 35 24" fill="none" xmlns="http://www.w3.org/2000/svg">
<path d="M1.45575 23.7141H33.3713C33.667 23.7141 33.9458 23.5819 34.1281 23.355C34.3119 23.128 34.3793 22.832 34.3119 22.5494L31.8286 12.0743C31.726 11.6445 31.3369 11.3409 30.8865 11.3409H26.1588L23.8501 1.5962C23.7475 1.16638 23.3583 0.862793 22.9095 0.862793H11.9191C11.4718 0.865799 11.0857 1.16938 10.9846 1.5962L8.67287 11.3409H3.9452C3.49633 11.3409 3.10568 11.6445 3.00304 12.0743L0.519713 22.5494C0.452306 22.8305 0.519713 23.1265 0.703549 23.3535C0.887386 23.5804 1.16467 23.7126 1.46034 23.7126H1.45575V23.7141ZM17.4143 18.5818L16.1474 13.2375H18.6812L17.4143 18.5818ZM32.1595 21.819H18.6307L20.6651 13.236H30.1205L32.1595 21.819ZM12.6866 2.75943H22.142L24.1764 11.3424H10.6491L12.6866 2.75943ZM4.70966 13.2375H14.168L16.1994 21.816H2.6752L4.70966 13.2375Z" fill="#EC2333"/>
</svg>
