<svg width="22" height="7" viewBox="0 0 22 7" fill="none" xmlns="http://www.w3.org/2000/svg">
<path d="M10.4249 6.58714C7.71652 6.10014 5.2624 5.71638 2.84006 5.19123C1.88884 4.98476 0.815015 4.48878 0.86496 3.333C0.910365 2.27596 1.93424 1.84731 2.85141 1.58474C8.20689 0.0564082 13.5896 0.0968047 18.9587 1.49721C19.9463 1.7553 21.1972 2.10764 21.179 3.40032C21.1631 4.67056 19.944 5.09472 18.9405 5.27875C16.0596 5.81064 13.1515 6.17869 10.4249 6.58714ZM20.1574 3.47887C18.0234 0.906976 4.25896 0.875556 1.95467 3.37339C4.0342 5.83757 16.9745 5.94754 20.1574 3.47887Z" fill="#EC2333" stroke="#EC2333" stroke-width="0.6"/>
</svg>
